<svg id="Capa_1" enable-background="new 0 0 496.2 496.2" height="512" viewBox="0 0 496.2 496.2" width="512" xmlns="http://www.w3.org/2000/svg"><path d="m458.6 72.925-47.51-22.765-373 6.712v401.828h119.7 266.19c18.05 0 32.71-14.56 32.82-32.61l1.8-274.28z" fill="#f9f7f8"/><path d="m45 434.7v-361.44h.301l-.211-.1 22-16 345.629-6.219-1.629-.781-389 7-22 16 .211.1h-.301v361.44c0 13.25 10.75 24 24 24h45c-13.25 0-24-10.75-24-24z" fill="#efedef"/><path d="m434.6.1h-400.51v73.16h422.51 2v-49.16c0-13.25-10.75-24-24-24z" fill="#ee6161"/><path d="m69 .1h-45c-13.25 0-24 10.75-24 24v49.16h2 43v-49.16c0-13.25 10.75-24 24-24z" fill="#e94444"/><path d="m378.841 135.049h-307.486c-5.035 0-9.116 4.081-9.116 9.116v93.53c0 5.035 4.082 9.116 9.116 9.116h318.235l-.201-101.235c-.012-5.817-4.731-10.527-10.548-10.527z" fill="#e5e1e5"/><g><path d="m44.092 43.801h-5.632c-4.142 0-7.5-3.358-7.5-7.5s3.358-7.5 7.5-7.5h5.632c4.142 0 7.5 3.358 7.5 7.5s-3.358 7.5-7.5 7.5z" fill="#d83131"/></g><g><path d="m96.258 43.801h-5.632c-4.142 0-7.5-3.358-7.5-7.5s3.358-7.5 7.5-7.5h5.632c4.142 0 7.5 3.358 7.5 7.5s-3.358 7.5-7.5 7.5z" fill="#00f2a6"/></g><g><path d="m148.424 43.801h-5.632c-4.142 0-7.5-3.358-7.5-7.5s3.358-7.5 7.5-7.5h5.632c4.142 0 7.5 3.358 7.5 7.5s-3.358 7.5-7.5 7.5z" fill="#fedf30"/></g><path d="m496.09 249.16-20-24h-257.834v270.94h250.214c15.32 0 27.73-12.42 27.73-27.74v-219.2z" fill="#f9f7f8"/><path d="m225.79 468.36v-219.2h.3l20-24h-38l-20 24h-.3v219.2c0 15.32 12.42 27.74 27.74 27.74h38c-15.32 0-27.74-12.42-27.74-27.74z" fill="#efedef"/><path d="m468.47 181.81h-252.94c-.352 0-.7.014-1.048.027v67.323h281.718v-39.61c0-15.32-12.41-27.74-27.73-27.74z" fill="#ee6161"/><path d="m253.53 181.81h-38c-15.32 0-27.74 12.42-27.74 27.74v39.61h38v-39.61c0-15.32 12.42-27.74 27.74-27.74z" fill="#e94444"/><path d="m430.335 365.168h-176.673c-8.483 0-15.36-6.877-15.36-15.36v-31.841c0-8.483 6.877-15.36 15.36-15.36h176.673c8.483 0 15.36 6.877 15.36 15.36v31.841c0 8.483-6.877 15.36-15.36 15.36z" fill="#e5e1e5"/><g><path d="m138.669 301.106h-76.43c-4.142 0-7.5-3.358-7.5-7.5s3.358-7.5 7.5-7.5h76.43c4.142 0 7.5 3.358 7.5 7.5s-3.358 7.5-7.5 7.5z" fill="#e5e1e5"/></g><g><path d="m138.669 357.33h-76.43c-4.142 0-7.5-3.358-7.5-7.5s3.358-7.5 7.5-7.5h76.43c4.142 0 7.5 3.358 7.5 7.5s-3.358 7.5-7.5 7.5z" fill="#e5e1e5"/></g><g><path d="m445.696 437.432h-207.394c-4.142 0-7.5-3.358-7.5-7.5s3.358-7.5 7.5-7.5h207.394c4.143 0 7.5 3.358 7.5 7.5s-3.358 7.5-7.5 7.5z" fill="#e5e1e5"/></g><path d="" fill="#f79595"/></svg>