<svg id="Capa_1" enable-background="new 0 0 498.04 498.04" height="512" viewBox="0 0 498.04 498.04" width="512" xmlns="http://www.w3.org/2000/svg"><path d="m498.04 205.461v202.15c0 11.8-9.56 21.37-21.36 21.37h-455.31c-11.8 0-21.37-9.57-21.37-21.37v-202.15z" fill="#efedef"/><path d="m377.029 205.461v223.52h65.732c.521-2.991.809-6.062.809-9.2v-214.32z" fill="#e5e1e5"/><path d="m161.83 205.461h-103.34v214.32c0 3.138.287 6.209.809 9.2h91.307v-5.73c-1.913 0-3.47-1.557-3.47-3.47v-199.277z" fill="#e5e1e5"/><g fill="#99e6fc"><path d="m83.49 319.884h-34.011l2.941-2.941c2.929-2.93 2.929-7.678 0-10.607-2.929-2.928-7.678-2.928-10.606 0l-15.598 15.598c-1.407 1.407-2.197 3.314-2.197 5.304s.79 3.896 2.197 5.304l14.933 14.933c1.464 1.464 3.384 2.196 5.303 2.196s3.839-.732 5.303-2.197c2.929-2.929 2.929-7.678 0-10.606l-1.982-1.981h33.717c4.142 0 7.5-3.357 7.5-7.5s-3.358-7.503-7.5-7.503z"/><path d="m476.844 321.933-15.598-15.598c-2.929-2.928-7.678-2.928-10.606 0-2.929 2.93-2.929 7.678 0 10.607l2.941 2.941h-34.011c-4.142 0-7.5 3.357-7.5 7.5s3.358 7.5 7.5 7.5h33.716l-1.982 1.981c-2.929 2.929-2.929 7.678 0 10.606 1.464 1.465 3.384 2.197 5.303 2.197s3.839-.732 5.303-2.196l14.933-14.933c1.407-1.407 2.197-3.314 2.197-5.304s-.789-3.894-2.196-5.301z"/></g><path d="m376.278 71.195-24.313-19.729c-3.218-2.608-7.941-2.119-10.55 1.099-2.61 3.216-2.119 7.939 1.098 10.55l8.125 6.593h-198.216l8.125-6.593c3.216-2.61 3.708-7.334 1.098-10.55-2.61-3.218-7.333-3.706-10.55-1.099l-24.313 19.729c-1.755 1.425-2.774 3.564-2.774 5.824s1.019 4.399 2.774 5.823l23.276 18.889c1.39 1.128 3.061 1.677 4.722 1.677 2.182 0 4.346-.947 5.828-2.774 2.61-3.216 2.119-7.939-1.098-10.549l-6.627-5.378h197.293l-6.627 5.378c-3.216 2.609-3.708 7.333-1.098 10.549 1.482 1.827 3.646 2.774 5.828 2.774 1.661 0 3.332-.549 4.722-1.677l23.276-18.889c1.755-1.424 2.774-3.563 2.774-5.823s-1.018-4.4-2.773-5.824z" fill="#99e6fc"/><g><g id="XMLID_848_"><g><path d="m498.04 175.901v29.56h-498.04v-29.56c0-11.8 9.57-21.37 21.37-21.37h455.31c11.8 0 21.36 9.57 21.36 21.37z" fill="#ee6161"/></g></g></g><path d="m396.46 190.551h-289.681v257.221c1.681.309 3.411.479 5.181.479h278.14c15.72 0 28.47-12.75 28.47-28.47v-209.46z" fill="#f9f7f8"/><path d="m122.136 419.781v-209.46l19.31-19.77h-38.646l-19.31 19.77v209.46c0 15.72 12.75 28.47 28.47 28.47h38.646c-15.72 0-28.47-12.75-28.47-28.47z" fill="#efedef"/><path d="m442.762 154.531h-32.462v50.93h33.27v-41.73c0-3.138-.287-6.209-.808-9.2z" fill="#e94444"/><path d="m147.136 205.461v-41.73c0-1.913 1.557-3.47 3.47-3.47v-5.73h-91.308c-.521 2.991-.808 6.062-.808 9.2v41.73z" fill="#e94444"/><path d="m390.1 135.261h-247.478c-11.994 3.36-24.521 6.786-24.521 6.786l-11.323 21.719v46.555h311.792v-46.59c0-15.72-12.75-28.47-28.47-28.47z" fill="#ee6161"/><path d="m150.606 135.261h-38.646c-15.72 0-28.47 12.75-28.47 28.47v46.59h38.646v-46.59c0-15.72 12.75-28.47 28.47-28.47z" fill="#e94444"/><g><path d="m127.681 180.855h-6.307c-4.142 0-7.5-3.357-7.5-7.5s3.358-7.5 7.5-7.5h6.307c4.142 0 7.5 3.357 7.5 7.5s-3.358 7.5-7.5 7.5z" fill="#d83131"/></g><g><path d="m175.375 180.855h-6.307c-4.142 0-7.5-3.357-7.5-7.5s3.358-7.5 7.5-7.5h6.307c4.142 0 7.5 3.357 7.5 7.5s-3.358 7.5-7.5 7.5z" fill="#00f2a6"/></g><g><path d="m223.069 180.855h-6.307c-4.142 0-7.5-3.357-7.5-7.5s3.358-7.5 7.5-7.5h6.307c4.142 0 7.5 3.357 7.5 7.5s-3.358 7.5-7.5 7.5z" fill="#fed402"/></g><g><g id="XMLID_850_"><g><path d="m369.08 260.201c-2.27-3.04-5.89-5.01-9.98-5.01h-216.14c-4.42 0-8.31 2.31-10.52 5.79l22.475 43.148 90.477 42.726 53.058-4.685 63.39-61.498 6.369-19.691.95-.66c-.019-.04-.049-.08-.079-.12z" fill="#efedef"/><path d="m368.21 395.601-6.072-21.131-41.346-36.614-70.462-9.566-46.851 6.577-66.751 45.082-3.358 15.121c2.28 2.75 5.73 4.51 9.59 4.51h216.14c3.6 0 6.84-1.53 9.12-3.97z" fill="#efedef"/><g fill="#e5e1e5"><path d="m371.55 267.651v119.47c0 3.28-1.26 6.27-3.33 8.49l-.01-.01-117.88-67.31 117.88-67.31.95-.66c1.5 2.06 2.39 4.59 2.39 7.33z"/><path d="m250.33 328.291-116.96 66.78c-1.79-2.16-2.86-4.93-2.86-7.95v-119.47c0-2.46.71-4.74 1.93-6.67z"/></g></g></g></g></svg>