<svg id="Capa_1" enable-background="new 0 0 512 512" height="512" viewBox="0 0 512 512" width="512" xmlns="http://www.w3.org/2000/svg"><g><path d="m15 15h482v482h-482z" fill="#fff16b"/><path d="m15 256h482v241h-482z" fill="#ffb454"/><path d="m497 0h-482c-8.284 0-15 6.716-15 15v482c0 8.284 6.716 15 15 15h482c8.284 0 15-6.716 15-15v-482c0-8.284-6.716-15-15-15zm-336.333 432v50h-50.333v-50zm30 0h50.333v50h-50.333zm80.333 0h50.333v50h-50.333zm80.333 0h50.333v50h-50.333zm-321.333-30v-292h452v292zm321.333-322v-50h50.333v50zm-30 0h-50.333v-50h50.333zm-80.333 0h-50.333v-50h50.333zm-80.333 0h-50.333v-50h50.333zm321.333 0h-50.334v-50h50.334zm-452-50h50.333v50h-50.333zm0 402h50.333v50h-50.333zm452 50h-50.334v-50h50.334z" fill="#0052be"/><path d="m482 256v146h-452v-146h-30v241c0 8.284 6.716 15 15 15h482c8.284 0 15-6.716 15-15v-241zm-401.667 226h-50.333v-50h50.333zm80.334 0h-50.333v-50h50.333zm80.333 0h-50.333v-50h50.333zm80.333 0h-50.333v-50h50.333zm80.333 0h-50.333v-50h50.333zm80.334 0h-50.334v-50h50.334z" fill="#00337a"/><path d="m256 371c-63.411 0-115-51.589-115-115s51.589-115 115-115 115 51.589 115 115-51.589 115-115 115z" fill="#ff6b6b"/><g><path d="m256 371c63.411 0 115-51.589 115-115h-230c0 63.411 51.589 115 115 115z" fill="#ff1f3d"/></g><path d="m235.998 316c-2.287 0-4.583-.522-6.706-1.583-5.082-2.542-8.292-7.735-8.292-13.417v-90c0-5.682 3.21-10.875 8.292-13.417 5.081-2.541 11.162-1.993 15.708 1.417l60 45c3.777 2.833 6 7.279 6 12s-2.223 9.167-6 12l-60 45c-2.646 1.985-5.814 3-9.002 3z" fill="#f9f9f9"/><g><path d="m221 301c0 5.682 3.21 10.875 8.292 13.417 2.123 1.062 4.419 1.583 6.706 1.583 3.188 0 6.355-1.015 9.002-3l60-45c3.777-2.833 6-7.279 6-12h-90z" fill="#e2dff4"/></g></g></svg>