<svg id="Two_Tone" height="512" viewBox="0 0 512 512" width="512" xmlns="http://www.w3.org/2000/svg" data-name="Two Tone"><rect fill="#1a76d2" height="464" rx="24" width="336" x="56" y="24"/><rect fill="#ffecb3" height="272" rx="8" transform="matrix(0 1 -1 0 464 16)" width="368" x="40" y="104"/><circle cx="224" cy="456" fill="#ffd54f" r="16"/><path d="m448 66.146a16 16 0 0 0 -21.859 5.854l-160 277.128-6.141 42.644 33.857-26.641 159.997-277.131a16 16 0 0 0 -5.854-21.854z" fill="#ffd54f"/><g fill="#0d47a0"><path d="m184 360h56v16h-56z"/><path d="m184 296h80v16h-80z"/><path d="m184 232h112v16h-112z"/><path d="m184 168h144v16h-144z"/><path d="m184 104h144v16h-144z"/><path d="m160 344h-32a8 8 0 0 0 -8 8v32a8 8 0 0 0 8 8h32a8 8 0 0 0 8-8v-32a8 8 0 0 0 -8-8zm-8 32h-16v-16h16z"/><path d="m168 288a8 8 0 0 0 -8-8h-32a8 8 0 0 0 -8 8v32a8 8 0 0 0 8 8h32a8 8 0 0 0 8-8zm-16 24h-16v-16h16z"/><path d="m168 224a8 8 0 0 0 -8-8h-32a8 8 0 0 0 -8 8v32a8 8 0 0 0 8 8h32a8 8 0 0 0 8-8zm-16 24h-16v-16h16z"/><path d="m168 160a8 8 0 0 0 -8-8h-32a8 8 0 0 0 -8 8v32a8 8 0 0 0 8 8h32a8 8 0 0 0 8-8zm-16 24h-16v-16h16z"/><path d="m168 96a8 8 0 0 0 -8-8h-32a8 8 0 0 0 -8 8v32a8 8 0 0 0 8 8h32a8 8 0 0 0 8-8zm-16 24h-16v-16h16z"/><path d="m248 456a24 24 0 1 0 -24 24 24.027 24.027 0 0 0 24-24zm-24 8a8 8 0 1 1 8-8 8.009 8.009 0 0 1 -8 8z"/><path d="m384 456a24.028 24.028 0 0 1 -24 24h-272a24.028 24.028 0 0 1 -24-24v-400a24.028 24.028 0 0 1 24-24h272a24.028 24.028 0 0 1 24 24v41.038l16-27.713v-13.325a40.045 40.045 0 0 0 -40-40h-272a40.045 40.045 0 0 0 -40 40v400a40.045 40.045 0 0 0 40 40h272a40.045 40.045 0 0 0 40-40v-226.673l-16 27.713z"/><path d="m368 424v-139.248l-16 27.713v103.535h-256v-352h256v88.463l16-27.713v-68.75a8 8 0 0 0 -8-8h-272a8 8 0 0 0 -8 8v368a8 8 0 0 0 8 8h272a8 8 0 0 0 8-8z"/><path d="m452.005 59.259a24.027 24.027 0 0 0 -32.785 8.785l-160 277.128a7.994 7.994 0 0 0 -.99 2.859l-6.144 42.641a8 8 0 0 0 12.866 7.428l33.856-26.641a8 8 0 0 0 1.981-2.287l160-277.128a24.028 24.028 0 0 0 -8.784-32.785zm-181.23 313.9 2.835-19.678 12.789 7.384zm176.158-289.115-152 263.271-13.857-8 152-263.271a8 8 0 1 1 13.857 8z"/></g></svg>