<svg id="Capa_1" enable-background="new 0 0 512.002 512.002" height="512" viewBox="0 0 512.002 512.002" width="512" xmlns="http://www.w3.org/2000/svg"><g><g><path d="m2.438 505.194c-4.526-6.939-2.569-16.232 4.37-20.758l92-60c6.939-4.525 16.232-2.569 20.758 4.37s2.569 16.232-4.37 20.758l-92 60c-6.949 4.532-16.238 2.56-20.758-4.37z" fill="#474f54"/></g><path d="m467.002 437h-90c-8.284 0-15 6.716-15 15v15c0 24.813 20.187 45 45 45h30c24.813 0 45-20.187 45-45v-15c0-8.284-6.716-15-15-15z" fill="#474f54"/><path d="m197.002 437h-90c-8.284 0-15 6.716-15 15v15c0 24.813 20.187 45 45 45h30c24.813 0 45-20.187 45-45v-15c0-8.284-6.716-15-15-15z" fill="#575f64"/><g><path d="m497.002 272h-30c-8.284 0-15-6.716-15-15s6.716-15 15-15h30c8.284 0 15 6.716 15 15s-6.716 15-15 15z" fill="#32393f"/></g><g><path d="m107.002 272h-30c-8.284 0-15-6.716-15-15s6.716-15 15-15h30c8.284 0 15 6.716 15 15s-6.716 15-15 15z" fill="#474f54"/></g><path d="m392.002 45v30c0 8.28-6.72 15-15 15h-180c-8.28 0-15-6.72-15-15v-30c0-24.81 20.19-45 45-45h120c24.81 0 45 20.19 45 45z" fill="#575f64"/><path d="m392.002 45v30c0 8.28-6.72 15-15 15h-90v-90h60c24.81 0 45 20.19 45 45z" fill="#474f54"/><path d="m482.002 90v45c0 8.28-6.72 15-15 15h-360c-8.28 0-15-6.72-15-15v-30c0-24.81 20.19-45 45-45h315c16.54 0 30 13.46 30 30z" fill="#ffb366"/><path d="m482.002 90v45c0 8.28-6.72 15-15 15h-180v-90h165c16.54 0 30 13.46 30 30z" fill="#ff884d"/><g><g><path d="m287.002 302-195 15v135h390v-135z" fill="#ffb366"/><path d="m482.002 317v135h-195v-150z" fill="#ff884d"/><path d="m92.002 135h390v182h-390z" fill="#575f64"/><path d="m287.002 135h195v182h-195z" fill="#474f54"/></g></g><g><path d="m362.002 377c0 8.28-6.72 15-15 15h-120c-8.28 0-15-6.72-15-15s6.72-15 15-15h120c8.28 0 15 6.72 15 15z" fill="#575f64"/></g><path d="m362.002 377c0 8.28-6.72 15-15 15h-60v-30h60c8.28 0 15 6.72 15 15z" fill="#474f54"/><g><circle cx="167.002" cy="377" fill="#edf5ff" r="15"/></g><g><circle cx="407.002" cy="377" fill="#d5e8fe" r="15"/></g></g></svg>