<svg id="Layer_1" enable-background="new 0 0 511.96 511.96" height="512" viewBox="0 0 511.96 511.96" width="512" xmlns="http://www.w3.org/2000/svg"><g><g><path d="m362.98 133.71h-30v-58.002c0-9.375-7.628-17.003-17.003-17.003h-119.995c-9.375 0-17.002 7.627-17.002 17.003v58.002h-30v-58.002c0-25.917 21.085-47.003 47.002-47.003h119.995c25.918 0 47.003 21.085 47.003 47.003z" fill="#913f02"/></g><path d="m315.978 28.705h-59.986v30h59.986c9.375 0 17.003 7.627 17.003 17.003v58.002h30v-58.002c-.001-25.917-21.085-47.003-47.003-47.003z" fill="#673416"/><path d="m421.97 133.711h-331.98c-1.206 41.102-34.021 74.261-74.99 75.992v182.56c40.969 1.731 73.784 34.89 74.989 75.992h331.981c1.206-41.103 34.021-74.261 74.99-75.992v-182.56c-40.969-1.731-73.784-34.89-74.99-75.992z" fill="#dc8758"/><path d="m421.97 133.711h-165.979v334.544h165.979c1.206-41.103 34.021-74.261 74.99-75.992v-182.56c-40.969-1.731-73.784-34.89-74.99-75.992z" fill="#ac5e2e"/><path d="m0 483.255h511.96v-364.544h-511.96zm408.545-30h-305.13c-3.408-18.164-12.146-34.945-25.337-48.301-13.217-13.382-29.926-22.336-48.078-25.955v-156.032c18.152-3.619 34.861-12.573 48.078-25.956 13.191-13.355 21.929-30.137 25.337-48.301h305.13c3.408 18.164 12.146 34.945 25.337 48.301 13.217 13.382 29.926 22.336 48.078 25.956v156.031c-18.152 3.619-34.861 12.573-48.078 25.956-13.192 13.356-21.929 30.137-25.337 48.301z" fill="#ac5e2e"/><path d="m347.98 236.579c-29.999 0-54.404 24.405-54.404 54.404s24.405 54.404 54.404 54.404c29.998 0 54.403-24.405 54.403-54.404s-24.404-54.404-54.403-54.404z" fill="#90ea8f"/><g><path d="m114.769 249.433h89.34v30h-89.34z" fill="#ffa400" transform="matrix(.861 -.509 .509 .861 -112.339 117.864)"/></g><g><path d="m150.98 347.02h130.666v30h-130.666z" fill="#ffa400"/></g><path d="m347.98 236.579c-29.999 0-54.404 24.405-54.404 54.404s24.405 54.404 54.404 54.404c29.998 0 54.403-24.405 54.403-54.404s-24.404-54.404-54.403-54.404z" fill="#00ba9f"/><path d="m511.96 118.711h-255.969v30h152.554c3.408 18.164 12.146 34.945 25.337 48.301 13.217 13.382 29.926 22.336 48.078 25.956v156.031c-18.152 3.619-34.861 12.573-48.078 25.956-13.191 13.355-21.929 30.137-25.337 48.301h-152.554v30h255.969z" fill="#913f02"/><path d="m255.991 347.02h25.655v30h-25.655z" fill="#fd8700"/></g></svg>